<svg xmlns="http://www.w3.org/2000/svg" xmlns:xlink="http://www.w3.org/1999/xlink" id="processonSvg1000" viewBox="75.0 129.5999984741211 673.0625 524.0" width="673.0625" height="524.0"><defs id="ProcessOnDefs1001"><marker id="ProcessOnMarker1063" markerUnits="userSpaceOnUse" orient="auto" markerWidth="16.23606797749979" markerHeight="10.550836550532098" viewBox="-1.0 -1.3763819204711736 16.23606797749979 10.550836550532098" refX="-1.0" refY="3.8990363547948754"><path id="ProcessOnPath1064" d="M12.0 3.8990363547948754L0.0 7.798072709589751V0.0Z" stroke="#323232" stroke-width="2.0" fill="#323232" transform="matrix(1.0,0.0,0.0,1.0,0.0,0.0)"/></marker><marker id="ProcessOnMarker1067" markerUnits="userSpaceOnUse" orient="auto" markerWidth="16.23606797749979" markerHeight="10.550836550532098" viewBox="-1.0 -1.3763819204711736 16.23606797749979 10.550836550532098" refX="-1.0" refY="3.8990363547948754"><path id="ProcessOnPath1068" d="M12.0 3.8990363547948754L0.0 7.798072709589751V0.0Z" stroke="#323232" stroke-width="2.0" fill="#323232" transform="matrix(1.0,0.0,0.0,1.0,0.0,0.0)"/></marker><marker id="ProcessOnMarker1071" markerUnits="userSpaceOnUse" orient="auto" markerWidth="16.23606797749979" markerHeight="10.550836550532098" viewBox="-1.0 -1.3763819204711736 16.23606797749979 10.550836550532098" refX="-1.0" refY="3.8990363547948754"><path id="ProcessOnPath1072" d="M12.0 3.8990363547948754L0.0 7.798072709589751V0.0Z" stroke="#323232" stroke-width="2.0" fill="#323232" transform="matrix(1.0,0.0,0.0,1.0,0.0,0.0)"/></marker><marker id="ProcessOnMarker1075" markerUnits="userSpaceOnUse" orient="auto" markerWidth="16.23606797749979" markerHeight="10.550836550532098" viewBox="-1.0 -1.3763819204711736 16.23606797749979 10.550836550532098" refX="-1.0" refY="3.8990363547948754"><path id="ProcessOnPath1076" d="M12.0 3.8990363547948754L0.0 7.798072709589751V0.0Z" stroke="#323232" stroke-width="2.0" fill="#323232" transform="matrix(1.0,0.0,0.0,1.0,0.0,0.0)"/></marker><marker id="ProcessOnMarker1079" markerUnits="userSpaceOnUse" orient="auto" markerWidth="16.23606797749979" markerHeight="10.550836550532098" viewBox="-1.0 -1.3763819204711736 16.23606797749979 10.550836550532098" refX="-1.0" refY="3.8990363547948754"><path id="ProcessOnPath1080" d="M12.0 3.8990363547948754L0.0 7.798072709589751V0.0Z" stroke="#323232" stroke-width="2.0" fill="#323232" transform="matrix(1.0,0.0,0.0,1.0,0.0,0.0)"/></marker><marker id="ProcessOnMarker1083" markerUnits="userSpaceOnUse" orient="auto" markerWidth="16.23606797749979" markerHeight="10.550836550532098" viewBox="-1.0 -1.3763819204711736 16.23606797749979 10.550836550532098" refX="-1.0" refY="3.8990363547948754"><path id="ProcessOnPath1084" d="M12.0 3.8990363547948754L0.0 7.798072709589751V0.0Z" stroke="#323232" stroke-width="2.0" fill="#323232" transform="matrix(1.0,0.0,0.0,1.0,0.0,0.0)"/></marker><marker id="ProcessOnMarker1087" markerUnits="userSpaceOnUse" orient="auto" markerWidth="16.23606797749979" markerHeight="10.550836550532098" viewBox="-1.0 -1.3763819204711736 16.23606797749979 10.550836550532098" refX="-1.0" refY="3.8990363547948754"><path id="ProcessOnPath1088" d="M12.0 3.8990363547948754L0.0 7.798072709589751V0.0Z" stroke="#323232" stroke-width="2.0" fill="#323232" transform="matrix(1.0,0.0,0.0,1.0,0.0,0.0)"/></marker><marker id="ProcessOnMarker1091" markerUnits="userSpaceOnUse" orient="auto" markerWidth="16.23606797749979" markerHeight="10.550836550532098" viewBox="-1.0 -1.3763819204711736 16.23606797749979 10.550836550532098" refX="-1.0" refY="3.8990363547948754"><path id="ProcessOnPath1092" d="M12.0 3.8990363547948754L0.0 7.798072709589751V0.0Z" stroke="#323232" stroke-width="2.0" fill="#323232" transform="matrix(1.0,0.0,0.0,1.0,0.0,0.0)"/></marker><marker id="ProcessOnMarker1095" markerUnits="userSpaceOnUse" orient="auto" markerWidth="16.23606797749979" markerHeight="10.550836550532098" viewBox="-1.0 -1.3763819204711736 16.23606797749979 10.550836550532098" refX="-1.0" refY="3.8990363547948754"><path id="ProcessOnPath1096" d="M12.0 3.8990363547948754L0.0 7.798072709589751V0.0Z" stroke="#323232" stroke-width="2.0" fill="#323232" transform="matrix(1.0,0.0,0.0,1.0,0.0,0.0)"/></marker><marker id="ProcessOnMarker1099" markerUnits="userSpaceOnUse" orient="auto" markerWidth="16.23606797749979" markerHeight="10.550836550532098" viewBox="-1.0 -1.3763819204711736 16.23606797749979 10.550836550532098" refX="-1.0" refY="3.8990363547948754"><path id="ProcessOnPath1100" d="M12.0 3.8990363547948754L0.0 7.798072709589751V0.0Z" stroke="#323232" stroke-width="2.0" fill="#323232" transform="matrix(1.0,0.0,0.0,1.0,0.0,0.0)"/></marker><marker id="ProcessOnMarker1103" markerUnits="userSpaceOnUse" orient="auto" markerWidth="16.23606797749979" markerHeight="10.550836550532098" viewBox="-1.0 -1.3763819204711736 16.23606797749979 10.550836550532098" refX="-1.0" refY="3.8990363547948754"><path id="ProcessOnPath1104" d="M12.0 3.8990363547948754L0.0 7.798072709589751V0.0Z" stroke="#323232" stroke-width="2.0" fill="#323232" transform="matrix(1.0,0.0,0.0,1.0,0.0,0.0)"/></marker><marker id="ProcessOnMarker1107" markerUnits="userSpaceOnUse" orient="auto" markerWidth="16.23606797749979" markerHeight="10.550836550532098" viewBox="-1.0 -1.3763819204711736 16.23606797749979 10.550836550532098" refX="-1.0" refY="3.8990363547948754"><path id="ProcessOnPath1108" d="M12.0 3.8990363547948754L0.0 7.798072709589751V0.0Z" stroke="#323232" stroke-width="2.0" fill="#323232" transform="matrix(1.0,0.0,0.0,1.0,0.0,0.0)"/></marker><marker id="ProcessOnMarker1111" markerUnits="userSpaceOnUse" orient="auto" markerWidth="16.23606797749979" markerHeight="10.550836550532098" viewBox="-1.0 -1.3763819204711736 16.23606797749979 10.550836550532098" refX="-1.0" refY="3.8990363547948754"><path id="ProcessOnPath1112" d="M12.0 3.8990363547948754L0.0 7.798072709589751V0.0Z" stroke="#323232" stroke-width="2.0" fill="#323232" transform="matrix(1.0,0.0,0.0,1.0,0.0,0.0)"/></marker><marker id="ProcessOnMarker1115" markerUnits="userSpaceOnUse" orient="auto" markerWidth="16.23606797749979" markerHeight="10.550836550532098" viewBox="-1.0 -1.3763819204711736 16.23606797749979 10.550836550532098" refX="-1.0" refY="3.8990363547948754"><path id="ProcessOnPath1116" d="M12.0 3.8990363547948754L0.0 7.798072709589751V0.0Z" stroke="#323232" stroke-width="2.0" fill="#323232" transform="matrix(1.0,0.0,0.0,1.0,0.0,0.0)"/></marker><marker id="ProcessOnMarker1119" markerUnits="userSpaceOnUse" orient="auto" markerWidth="16.23606797749979" markerHeight="10.550836550532098" viewBox="-1.0 -1.3763819204711736 16.23606797749979 10.550836550532098" refX="-1.0" refY="3.8990363547948754"><path id="ProcessOnPath1120" d="M12.0 3.8990363547948754L0.0 7.798072709589751V0.0Z" stroke="#323232" stroke-width="2.0" fill="#323232" transform="matrix(1.0,0.0,0.0,1.0,0.0,0.0)"/></marker></defs><g id="ProcessOnG1002"><path id="ProcessOnPath1003" d="M75.0 129.5999984741211H748.0625V653.5999984741211H75.0V129.5999984741211Z" fill="#ffffff"/><g id="ProcessOnG1004"><g id="ProcessOnG1005" transform="matrix(1.0,0.0,0.0,1.0,432.25,151.5999984741211)" opacity="1.0"><path id="ProcessOnPath1006" d="M0.0 0.0L80.25 0.0L80.25 28.400001525878906L0.0 28.400001525878906Z" stroke="#323232" stroke-width="2.0" stroke-dasharray="none" fill="#66ff66"/><g id="ProcessOnG1007" transform="matrix(1.0,0.0,0.0,1.0,10.0,4.825000762939453)"><text id="ProcessOnText1008" fill="#323232" font-size="15" x="29.125" y="15.375" font-family="Arial" font-weight="normal" font-style="normal" text-decoration="none" family="Arial" text-anchor="middle" size="15">1. 简介</text></g></g><g id="ProcessOnG1009" transform="matrix(1.0,0.0,0.0,1.0,606.0,149.5999984741211)" opacity="1.0"><path id="ProcessOnPath1010" d="M0.0 0.0L98.5 0.0L98.5 32.400001525878906L0.0 32.400001525878906Z" stroke="#323232" stroke-width="2.0" stroke-dasharray="none" fill="#ffe6cc"/><g id="ProcessOnG1011" transform="matrix(1.0,0.0,0.0,1.0,10.0,6.825000762939453)"><text id="ProcessOnText1012" fill="#323232" font-size="15" x="38.25" y="15.375" font-family="Arial" font-weight="normal" font-style="normal" text-decoration="none" family="Arial" text-anchor="middle" size="15">10. 复杂性</text></g></g><g id="ProcessOnG1013" transform="matrix(1.0,0.0,0.0,1.0,421.25,226.1999969482422)" opacity="1.0"><path id="ProcessOnPath1014" d="M0.0 0.0L102.25 0.0L102.25 32.400001525878906L0.0 32.400001525878906Z" stroke="#323232" stroke-width="2.0" stroke-dasharray="none" fill="#ffe6cc"/><g id="ProcessOnG1015" transform="matrix(1.0,0.0,0.0,1.0,10.0,6.825000762939453)"><text id="ProcessOnText1016" fill="#323232" font-size="15" x="40.125" y="15.375" font-family="Arial" font-weight="normal" font-style="normal" text-decoration="none" family="Arial" text-anchor="middle" size="15">2. 本文符号</text></g></g><g id="ProcessOnG1017" transform="matrix(1.0,0.0,0.0,1.0,593.5,225.1999969482422)" opacity="1.0"><path id="ProcessOnPath1018" d="M0.0 0.0L123.5 0.0L123.5 34.400001525878906L0.0 34.400001525878906Z" stroke="#323232" stroke-width="2.0" stroke-dasharray="none" fill="#ff9999"/><g id="ProcessOnG1019" transform="matrix(1.0,0.0,0.0,1.0,10.0,7.825000762939453)"><text id="ProcessOnText1020" fill="#323232" font-size="15" x="50.75" y="15.375" font-family="Arial" font-weight="normal" font-style="normal" text-decoration="none" family="Arial" text-anchor="middle" size="15">13. 正规方程式</text></g></g><g id="ProcessOnG1021" transform="matrix(1.0,0.0,0.0,1.0,417.625,295.0)" opacity="1.0"><path id="ProcessOnPath1022" d="M0.0 0.0L109.5 0.0L109.5 31.599998474121094L0.0 31.599998474121094Z" stroke="#323232" stroke-width="2.0" stroke-dasharray="none" fill="#ffffcc"/><g id="ProcessOnG1023" transform="matrix(1.0,0.0,0.0,1.0,10.0,6.424999237060547)"><text id="ProcessOnText1024" fill="#323232" font-size="15" x="43.75" y="15.375" font-family="Arial" font-weight="normal" font-style="normal" text-decoration="none" family="Arial" text-anchor="middle" size="15">3. 二次型</text></g></g><g id="ProcessOnG1025" transform="matrix(1.0,0.0,0.0,1.0,272.25,361.0999984741211)" opacity="1.0"><path id="ProcessOnPath1026" d="M0.0 0.0L102.75 0.0L102.75 32.400001525878906L0.0 32.400001525878906Z" stroke="#323232" stroke-width="2.0" stroke-dasharray="none" fill="#ccffff"/><g id="ProcessOnG1027" transform="matrix(1.0,0.0,0.0,1.0,10.0,6.825000762939453)"><text id="ProcessOnText1028" fill="#323232" font-size="15" x="40.375" y="15.375" font-family="Arial" font-weight="normal" font-style="normal" text-decoration="none" family="Arial" text-anchor="middle" size="15">4. 最速下降</text></g></g><g id="ProcessOnG1029" transform="matrix(1.0,0.0,0.0,1.0,599.875,362.0999984741211)" opacity="1.0"><path id="ProcessOnPath1030" d="M0.0 0.0L110.75 0.0L110.75 30.400001525878906L0.0 30.400001525878906Z" stroke="#323232" stroke-width="2.0" stroke-dasharray="none" fill="#ccccff"/><g id="ProcessOnG1031" transform="matrix(1.0,0.0,0.0,1.0,10.0,5.825000762939453)"><text id="ProcessOnText1032" fill="#323232" font-size="15" x="44.375" y="15.375" font-family="Arial" font-weight="normal" font-style="normal" text-decoration="none" family="Arial" text-anchor="middle" size="15">5. 特征向量</text></g></g><g id="ProcessOnG1033" transform="matrix(1.0,0.0,0.0,1.0,268.875,434.5999984741211)" opacity="1.0"><path id="ProcessOnPath1034" d="M0.0 0.0L109.5 0.0L109.5 32.400001525878906L0.0 32.400001525878906Z" stroke="#323232" stroke-width="2.0" stroke-dasharray="none" fill="#ff9999"/><g id="ProcessOnG1035" transform="matrix(1.0,0.0,0.0,1.0,10.0,6.825000762939453)"><text id="ProcessOnText1036" fill="#323232" font-size="15" x="43.75" y="15.375" font-family="Arial" font-weight="normal" font-style="normal" text-decoration="none" family="Arial" text-anchor="middle" size="15">7. 共轭方向</text></g></g><g id="ProcessOnG1037" transform="matrix(1.0,0.0,0.0,1.0,582.6875,432.5)" opacity="1.0"><path id="ProcessOnPath1038" d="M0.0 0.0L145.125 0.0L145.125 36.599998474121094L0.0 36.599998474121094Z" stroke="#323232" stroke-width="2.0" stroke-dasharray="none" fill="#ff9999"/><g id="ProcessOnG1039" transform="matrix(1.0,0.0,0.0,1.0,10.0,8.924999237060547)"><text id="ProcessOnText1040" fill="#323232" font-size="15" x="61.5625" y="15.375" font-family="Arial" font-weight="normal" font-style="normal" text-decoration="none" family="Arial" text-anchor="middle" size="15">6. 最速下降收敛性</text></g></g><g id="ProcessOnG1041" transform="matrix(1.0,0.0,0.0,1.0,268.875,517.0)" opacity="1.0"><path id="ProcessOnPath1042" d="M0.0 0.0L109.5 0.0L109.5 31.599998474121094L0.0 31.599998474121094Z" stroke="#323232" stroke-width="2.0" stroke-dasharray="none" fill="#ff9999"/><g id="ProcessOnG1043" transform="matrix(1.0,0.0,0.0,1.0,10.0,6.424999237060547)"><text id="ProcessOnText1044" fill="#323232" font-size="15" x="43.75" y="15.375" font-family="Arial" font-weight="normal" font-style="normal" text-decoration="none" family="Arial" text-anchor="middle" size="15">8. 共轭梯度</text></g></g><g id="ProcessOnG1045" transform="matrix(1.0,0.0,0.0,1.0,582.4375,515.0)" opacity="1.0"><path id="ProcessOnPath1046" d="M0.0 0.0L145.625 0.0L145.625 35.599998474121094L0.0 35.599998474121094Z" stroke="#323232" stroke-width="2.0" stroke-dasharray="none" fill="#ff9999"/><g id="ProcessOnG1047" transform="matrix(1.0,0.0,0.0,1.0,10.0,8.424999237060547)"><text id="ProcessOnText1048" fill="#323232" font-size="15" x="61.8125" y="15.375" font-family="Arial" font-weight="normal" font-style="normal" text-decoration="none" family="Arial" text-anchor="middle" size="15">9. 共轭梯度收敛性</text></g></g><g id="ProcessOnG1049" transform="matrix(1.0,0.0,0.0,1.0,95.0,601.0)" opacity="1.0"><path id="ProcessOnPath1050" d="M0.0 0.0L121.75 0.0L121.75 32.599998474121094L0.0 32.599998474121094Z" stroke="#323232" stroke-width="2.0" stroke-dasharray="none" fill="#ff9999"/><g id="ProcessOnG1051" transform="matrix(1.0,0.0,0.0,1.0,10.0,6.924999237060547)"><text id="ProcessOnText1052" fill="#323232" font-size="15" x="49.875" y="15.375" font-family="Arial" font-weight="normal" font-style="normal" text-decoration="none" family="Arial" text-anchor="middle" size="15">11. 开始和终止</text></g></g><g id="ProcessOnG1053" transform="matrix(1.0,0.0,0.0,1.0,265.5,601.0)" opacity="1.0"><path id="ProcessOnPath1054" d="M0.0 0.0L116.25 0.0L116.25 32.599998474121094L0.0 32.599998474121094Z" stroke="#323232" stroke-width="2.0" stroke-dasharray="none" fill="#ff9999"/><g id="ProcessOnG1055" transform="matrix(1.0,0.0,0.0,1.0,10.0,6.924999237060547)"><text id="ProcessOnText1056" fill="#323232" font-size="15" x="47.125" y="15.375" font-family="Arial" font-weight="normal" font-style="normal" text-decoration="none" family="Arial" text-anchor="middle" size="15">12. 预处理</text></g></g><g id="ProcessOnG1057" transform="matrix(1.0,0.0,0.0,1.0,430.0,601.0)" opacity="1.0"><path id="ProcessOnPath1058" d="M0.0 0.0L159.75 0.0L159.75 32.599998474121094L0.0 32.599998474121094Z" stroke="#323232" stroke-width="2.0" stroke-dasharray="none" fill="#ff9999"/><g id="ProcessOnG1059" transform="matrix(1.0,0.0,0.0,1.0,10.0,6.924999237060547)"><text id="ProcessOnText1060" fill="#323232" font-size="15" x="68.875" y="15.375" font-family="Arial" font-weight="normal" font-style="normal" text-decoration="none" family="Arial" text-anchor="middle" size="15">14. 非线性共轭梯度</text></g></g><g id="ProcessOnG1061"><path id="ProcessOnPath1062" d="M512.5 165.79999923706055L590.7639320225002 165.79999923706055" stroke="#323232" stroke-width="2.0" stroke-dasharray="none" fill="none" marker-end="url(#ProcessOnMarker1063)"/></g><g id="ProcessOnG1065"><path id="ProcessOnPath1066" d="M472.375 180.0L472.375 210.9639289707424" stroke="#323232" stroke-width="2.0" stroke-dasharray="none" fill="none" marker-end="url(#ProcessOnMarker1067)"/></g><g id="ProcessOnG1069"><path id="ProcessOnPath1070" d="M472.375 258.5999984741211L472.375 279.7639320225002" stroke="#323232" stroke-width="2.0" stroke-dasharray="none" fill="none" marker-end="url(#ProcessOnMarker1071)"/></g><g id="ProcessOnG1073"><path id="ProcessOnPath1074" d="M523.5 242.39999771118164L578.2639320225002 242.39999771118164" stroke="#323232" stroke-width="2.0" stroke-dasharray="none" fill="none" marker-end="url(#ProcessOnMarker1075)"/></g><g id="ProcessOnG1077"><path id="ProcessOnPath1078" d="M417.625 310.79999923706055L329.60673702939255 355.1447483760294" stroke="#323232" stroke-width="2.0" stroke-dasharray="none" fill="none" marker-end="url(#ProcessOnMarker1079)"/></g><g id="ProcessOnG1081"><path id="ProcessOnPath1082" d="M527.125 310.79999923706055L641.1055701649319 356.4367068468224" stroke="#323232" stroke-width="2.0" stroke-dasharray="none" fill="none" marker-end="url(#ProcessOnMarker1083)"/></g><g id="ProcessOnG1085"><path id="ProcessOnPath1086" d="M323.625 393.5L323.625 419.3639304966213" stroke="#323232" stroke-width="2.0" stroke-dasharray="none" fill="none" marker-end="url(#ProcessOnMarker1087)"/></g><g id="ProcessOnG1089"><path id="ProcessOnPath1090" d="M323.625 467.0L323.625 501.7639320225002" stroke="#323232" stroke-width="2.0" stroke-dasharray="none" fill="none" marker-end="url(#ProcessOnMarker1091)"/></g><g id="ProcessOnG1093"><path id="ProcessOnPath1094" d="M655.25 392.5L655.25 417.2639320225002" stroke="#323232" stroke-width="2.0" stroke-dasharray="none" fill="none" marker-end="url(#ProcessOnMarker1095)"/></g><g id="ProcessOnG1097"><path id="ProcessOnPath1098" d="M655.25 469.0999984741211L655.25 499.7639320225002" stroke="#323232" stroke-width="2.0" stroke-dasharray="none" fill="none" marker-end="url(#ProcessOnMarker1099)"/></g><g id="ProcessOnG1101"><path id="ProcessOnPath1102" d="M375.0 377.29999923706055L568.3243494077012 445.7169221691871" stroke="#323232" stroke-width="2.0" stroke-dasharray="none" fill="none" marker-end="url(#ProcessOnMarker1103)"/></g><g id="ProcessOnG1105"><path id="ProcessOnPath1106" d="M378.375 532.7999992370605L567.2014320225002 532.7999992370605" stroke="#323232" stroke-width="2.0" stroke-dasharray="none" fill="none" marker-end="url(#ProcessOnMarker1107)"/></g><g id="ProcessOnG1109"><path id="ProcessOnPath1110" d="M323.625 548.5999984741211L323.625 585.7639320225002" stroke="#323232" stroke-width="2.0" stroke-dasharray="none" fill="none" marker-end="url(#ProcessOnMarker1111)"/></g><g id="ProcessOnG1113"><path id="ProcessOnPath1114" d="M268.875 532.7999992370605L168.9194050779544 593.1271819799241" stroke="#323232" stroke-width="2.0" stroke-dasharray="none" fill="none" marker-end="url(#ProcessOnMarker1115)"/></g><g id="ProcessOnG1117"><path id="ProcessOnPath1118" d="M378.375 532.7999992370605L496.3497343789401 593.9853754701502" stroke="#323232" stroke-width="2.0" stroke-dasharray="none" fill="none" marker-end="url(#ProcessOnMarker1119)"/></g></g></g></svg>