<?xml version="1.0" encoding="UTF-8" standalone="no"?>
<!-- Generated by dot version 2.2.1 (Fri Sep 30 13:22:44 UTC 2005)
     For user: (tuukka) Tuukka Hastrup,,,   Title: Pipeline    Pages: 1 -->

<svg
   xmlns:dc="http://purl.org/dc/elements/1.1/"
   xmlns:cc="http://creativecommons.org/ns#"
   xmlns:rdf="http://www.w3.org/1999/02/22-rdf-syntax-ns#"
   xmlns:svg="http://www.w3.org/2000/svg"
   xmlns="http://www.w3.org/2000/svg"
   xmlns:sodipodi="http://sodipodi.sourceforge.net/DTD/sodipodi-0.dtd"
   xmlns:inkscape="http://www.inkscape.org/namespaces/inkscape"
   width="500pt"
   height="186pt"
   viewBox="-1 -1 499 185"
   id="svg2"
   version="1.1"
   inkscape:version="0.48.0 r9654"
   sodipodi:docname="Callback-notitle.svg">
  <metadata
     id="metadata51">
    <rdf:RDF>
      <cc:Work
         rdf:about="">
        <dc:format>image/svg+xml</dc:format>
        <dc:type
           rdf:resource="http://purl.org/dc/dcmitype/StillImage" />
      </cc:Work>
    </rdf:RDF>
  </metadata>
  <defs
     id="defs49" />
  <sodipodi:namedview
     pagecolor="#ffffff"
     bordercolor="#666666"
     borderopacity="1"
     objecttolerance="10"
     gridtolerance="10"
     guidetolerance="10"
     inkscape:pageopacity="0"
     inkscape:pageshadow="2"
     inkscape:window-width="640"
     inkscape:window-height="480"
     id="namedview47"
     showgrid="false"
     inkscape:zoom="0.8176"
     inkscape:cx="312.5"
     inkscape:cy="116.25"
     inkscape:window-x="0"
     inkscape:window-y="24"
     inkscape:window-maximized="0"
     inkscape:current-layer="svg2" />
  <polygon
     style="font-size:14px;fill:#D1EEEE;stroke:#d3d3d3;font-family:Times-Roman"
     points="8,83 8,83 490,83 490,7 8,7 "
     id="polygon6" />
  <text
     x="87.774414"
     y="27.1936"
     id="text8"
     style="font-size:14px;text-anchor:middle;font-family:Times-Roman">Application program</text>
  <polygon
     style="font-size:14px;fill:#ffccff;stroke:#d3d3d3;font-family:Times-Roman"
     points="168,167 168,167 302,167 302,91 168,91 "
     id="polygon11" />
  <text
     x="235.37122"
     y="160"
     id="text13"
     style="font-size:14px;text-anchor:middle;font-family:Times-Roman">Software library</text>
  <g
     style="font-size:14px;font-family:Times-Roman"
     class="node"
     id="node2">
    <polygon
       id="polygon16"
       points="16,75 114,75 114,39 114,39 16,39 "
       style="fill:#ffff00;stroke:#ffffff" />
    <text
       style="text-anchor:middle"
       id="text18"
       y="62"
       x="65">Main program</text>
  </g>
  <g
     style="font-size:14px;font-family:Times-Roman"
     class="node"
     id="node5" />
  <g
     style="font-size:14px;font-family:Times-Roman"
     class="edge"
     id="edge3" />
  <g
     style="font-size:14px;font-family:Times-Roman"
     class="node"
     id="node8">
    <ellipse
       sodipodi:ry="18"
       sodipodi:rx="59"
       sodipodi:cy="117"
       sodipodi:cx="235"
       id="ellipse23"
       style="fill:#ffcc33;stroke:#0000ff"
       ry="18"
       rx="59"
       cy="117"
       cx="235"
       d="m 294,117 c 0,9.94113 -26.4152,18 -59,18 -32.5848,0 -59,-8.05887 -59,-18 0,-9.94113 26.4152,-18 59,-18 32.5848,0 59,8.05887 59,18 z" />
    <text
       id="text25"
       y="122"
       x="235"
       style="text-anchor:middle;fill:#0000ff">Library function</text>
  </g>
  <g
     style="font-size:14px;font-family:Times-Roman"
     class="edge"
     id="edge8">
    <path
       inkscape:connector-curvature="0"
       id="path28"
       d="m 114,74 c 23,8 50,18 72,26"
       style="fill:none;stroke:#000000" />
    <polygon
       id="polygon30"
       points="185,103 187,97 187,97 196,103 "
       style="fill:#000000;stroke:#000000" />
    <text
       style="text-anchor:middle"
       id="text32"
       y="76"
       x="145">calls</text>
  </g>
  <g
     style="font-size:14px;font-family:Times-Roman"
     class="node"
     id="node3">
    <ellipse
       sodipodi:ry="18"
       sodipodi:rx="63"
       sodipodi:cy="57"
       sodipodi:cx="419"
       id="ellipse35"
       style="fill:#66cc33;stroke:#ffffff"
       ry="18"
       rx="63"
       cy="57"
       cx="419"
       d="m 482,57 c 0,9.941125 -28.20606,18 -63,18 -34.79394,0 -63,-8.058875 -63,-18 0,-9.941125 28.20606,-18 63,-18 34.79394,0 63,8.058875 63,18 z" />
    <text
       style="text-anchor:middle"
       id="text37"
       y="62"
       x="419">Callback function</text>
  </g>
  <g
     style="font-size:14px;font-family:Times-Roman"
     class="edge"
     id="edge5" />
  <g
     style="font-size:14px;font-family:Times-Roman"
     class="edge"
     id="edge10">
    <path
       inkscape:connector-curvature="0"
       id="path41"
       d="m 275,104 c 28,-9 63,-20 92,-30"
       style="fill:none;stroke:#ff0000" />
    <polygon
       id="polygon43"
       points="368,77 366,71 366,71 377,71 "
       style="fill:#ff0000;stroke:#ff0000" />
    <text
       style="text-anchor:middle"
       id="text45"
       y="81"
       x="325">calls</text>
  </g>
</svg>
